<svg xmlns="http://www.w3.org/2000/svg" viewBox="0 0 229.2 227.25"><defs><style>.cls-1{fill:#fff;}.cls-2{font-size:35.22px;fill:#29abe2;font-family:MyriadPro-Regular, Myriad Pro;}.cls-3{font-size:8.8px;}.cls-4{fill:red;}</style></defs><g id="Capa_2" data-name="Capa 2"><g id="Capa_1-2" data-name="Capa 1"><polygon class="cls-1" points="5.87 11.01 0 11.01 8.07 0 12.47 0 12.47 111.52 6.6 111.52 6.6 11.01 5.87 11.01"/><path class="cls-1" d="M77,5.87V0H42.55Q36.33,18.71,30.08,37.42l5.14,4.4,1.46-.73c13.63-5.76,28.86-4.17,39.62,4.4,10.11,8,12.59,19.29,13.21,22.74a33.92,33.92,0,0,1,0,8.81C89.17,79.57,87.23,92,76.3,99.78a31.41,31.41,0,0,1-11.74,5.14c-3,.63-15,2.81-25.67-4.41a30.39,30.39,0,0,1-8.08-8.07l-5.13,4.41a49.45,49.45,0,0,0,5.87,5.87c14.8,12.45,28.78,8.84,38.15,19.07,2.42,2.65,5.49,7.27,6.6,15.41a25.05,25.05,0,0,1-24.21,24.94A27.79,27.79,0,0,1,23.48,143.8L.73,148.94c1,2.82,9.45,24.5,33,32.28,2.25.74,26.75,8.37,47-7.34,3.23-2.51,19.56-15.2,18.34-35.95-1.19-20.2-18-31.16-19.81-32.28C81,104.32,95.74,93,96.11,73.37,96.53,51.24,78.38,39,77,38.15,60.33,27.33,42.6,33,40.35,33.75l-2.93.73L47,5.87Z"/><path class="cls-1" d="M224.51,110.79c-.06-6.77-.35-41.29-26.42-60.17a54.42,54.42,0,0,0-67.49,1.47c-23.85,19-23.56,51.18-23.48,60.16s.39,43.82,26.41,61.63a57.59,57.59,0,0,0,35.22,9.54c17.09-1.34,28.29-10.56,32.28-13.94C224.83,149.31,224.56,117.42,224.51,110.79Zm-36.82,40.88c-2.49,2.33-9.49,8.68-20.17,9.6a33.44,33.44,0,0,1-22-6.57c-16.26-12.26-16.45-36.31-16.5-42.41s-.23-28.32,14.67-41.4c2.11-1.85,9.76-8.37,21.09-8.59,11.1-.2,18.83,5.77,21.09,7.58,16.29,13,16.47,36.74,16.51,41.4S202.57,137.79,187.69,151.67Z"/><text class="cls-2" transform="translate(77.53 218.44)">D E S I G N<tspan class="cls-3" x="149.81" y="0"> </tspan></text><circle class="cls-4" cx="66.77" cy="206.9" r="4.4"/></g></g></svg>